<svg xmlns="http://www.w3.org/2000/svg" width="128" height="128" viewBox="0 0 609.2 525.46"><style>path{fill:#000}@media (prefers-color-scheme:dark){path{fill:#fff}}</style><path d="M259.91 6.15h2.78c14.06.01 27.7.6 41.53 3.25l2.74.48c23.4 4.24 45.95 12 67.26 22.52l1.98.96c11.6 5.7 22.29 12.87 33.02 20.04a44 44 0 0 1-6.12 10.87l-4.24 5.85q-4.68 6.58-9.26 13.21l-2.06 2.97-10.51 15.13a5177 5177 0 0 0-22.8 32.97 296 296 0 0 1-13.7-7.88c-33.37-19.95-74.9-27.25-113.06-18.5-29.4 7.48-54.28 20.37-76.25 41.38l-2.03 1.87c-27.63 26.32-42.85 65.63-44.25 103.31-.95 44.43 14.87 84.52 45.31 116.8 18.4 18.97 40.5 29.5 64.97 39.02v-72h82l1 74c13.87-3.94 13.87-3.94 27.07-9.19l2.5-1.14a142 142 0 0 0 18.41-10.49c3-2 5.5-3.44 9.02-4.18l2.28 3.22a3613 3613 0 0 0 26.1 36.59q7.29 10.07 14.43 20.25 3.28 4.74 6.76 9.34l2.25 2.97 1.95 2.53q.62 1.03 1.23 2.1c-1.1 3.3-1.47 3.6-4.25 5.38l-2.06 1.33-2.25 1.41-2.32 1.47c-33.06 20.8-69.22 34.58-108.12 39.4l-2.06.3c-47.7 5.8-96.96-3.35-139.94-24.3l-2.43-1.18c-20-9.87-38.66-22.36-55.05-37.51a270 270 0 0 0-6.36-5.61c-12.3-10.75-22.64-23.46-32.16-36.7l-1.33-1.85C26.88 371.53 12.07 329.98 7.22 287.4l-.29-2.53c-.8-7.84-.95-15.66-.96-23.54v-2.1A252.7 252.7 0 0 1 60.22 103.4l2.04-2.62C103.8 48.52 164.46 16.35 230.22 7.4l2.24-.32c9.1-1.1 18.3-.93 27.45-.93"/><path d="M475.47 66.15h6.13l3.6.02h3.8l10.28.02 10.75.02q10.18 0 20.36.04 11.59.04 23.17.05 23.84.03 47.67.1l-3.3 5.23-1.86 2.94a240 240 0 0 1-7.96 11.33q-6.75 9.24-13.19 18.68c-6.8 10-13.7 19.93-20.62 29.85l-6.22 8.94A2026 2026 0 0 1 512.01 194l-8.79 11.9-3.5 4.76-1.75 2.37-7 9.5-12.56 17.05-1.9 2.58-6.78 9.21q-1.5 2.02-3.05 4c-2.68 3.13-2.68 3.13-3.25 7a21 21 0 0 0 3.46 5.73l3.52 4.43 3.86 4.88 2 2.52q4.5 5.71 8.95 11.48l10.57 13.57a1021 1021 0 0 1 31.37 42.08q4.7 6.68 9.5 13.28l1.64 2.26 4.92 6.8q10.35 14.24 20.49 28.62c6.32 8.96 12.77 17.84 19.2 26.72 20.31 28 20.31 28 20.31 29.67q-24.9.56-49.83.83-11.58.11-23.15.37-10.08.25-20.18.3-5.34.02-10.68.19c-21.58.68-21.58.68-27.5-3.25-3.82-3.67-6.4-7.81-8.7-12.54a50 50 0 0 0-4.65-7.2l-3-4.45a392 392 0 0 0-12.93-18.1c-7.39-9.8-14.45-19.84-21.57-29.83q-5.07-7.09-10.18-14.14-6.53-9-12.94-18.12a699 699 0 0 0-23.45-31.5q-5.91-7.51-11.72-15.1-6.06-7.9-12.2-15.71l-1.4-1.79-2.69-3.4c-4.67-5.94-4.67-5.94-6.71-8.6a134 134 0 0 0-3.12-3.89c-1.46-1.82-1.46-1.82-3.4-5.07 1.02-3.56 2.74-6.28 4.95-9.23l1.75-2.36 1.87-2.48 1.92-2.57 8.05-10.75 4.28-5.69q4.4-5.91 8.75-11.87 4.76-6.5 9.54-12.96 10.34-14.03 20.5-28.17l5.58-7.67a1225 1225 0 0 0 20.43-28.88q5.59-8.12 11.26-16.19a1722 1722 0 0 0 14-20.25 552 552 0 0 1 12.08-17.1c3.2-4.45 6.29-8.99 9.37-13.53l1.35-2 1.21-1.78c2.53-3.46 2.53-3.46 5.36-3.77"/></svg>